<svg xmlns="http://www.w3.org/2000/svg" height="24" viewBox="0 -960 960 960" width="24" fill="#666"><path d="m370-80-16-128q-13-5-24.5-12T307-235l-119 50L88-352l104-76q-1-7-1.5-13.5T190-456q0-8 .5-14.5T192-484L88-560l100-167 119 50q11-8 23-15t24-12l16-128h200l16 128q13 5 24.5 12t22.5 15l119-50 100 167-104 76q1 7 1.5 13.5t.5 14.5q0 8-.5 14.5T850-476l104 76-100 167-119-50q-11 8-23 15t-24 12L672-128H472l-16 128H370Zm112-260q58 0 99-41t41-99q0-58-41-99t-99-41q-59 0-99.5 41T342-480q0 58 40.5 99t99.5 41Z"/></svg>
